{"title":"Little Fockers 2010 DVDSCR XviD SAFCuk009 {DragonTrG}","uid":6162595,"size":1255208790,"categoryP":"video","categoryS":"movies","magnet":"?xt=urn:btih:a47c97bdd30316ea7b24c0c72d24bb2eb47f21b8&amp;dn=Little+Fockers+2010+DVDSCR+XviD+SAFCuk009+%7BDragonTrG%7D&amp;tr=udp%3A%2F%2Ftracker.openbittorrent.com%3A80&amp;tr=udp%3A%2F%2Fopen.demonii.com%3A1337&amp;tr=udp%3A%2F%2Ftracker.coppersurfer.tk%3A6969&amp;tr=udp%3A%2F%2Fexodus.desync.com%3A6969","seeders":0,"leechers":0,"uploader":"SAFCukO09","files":4,"time":1297266477,"description":"Format : AVI\nFormat/Info : Audio Video Interleave\nFile size : 1.16 GiB\nDuration : 1h 38mn\nOverall bit rate : 1 684 Kbps\nWriting application : VirtualDubMod 1.5.10.2 (build 2540/release)\nWriting library : VirtualDub build 32839/release\n\nVideo\nID : 0\nFormat : MPEG-4 Visual\nFormat profile : Advanced Simple@L5\nFormat settings, BVOP : Yes\nFormat settings, QPel : No\nFormat settings, GMC : No warppoints\nFormat settings, Matrix : Custom\nCodec ID : XVID\nCodec ID/Hint : XviD\nDuration : 1h 38mn\nBit rate : 1 462 Kbps\nWidth : 720 pixels\nHeight : 352 pixels\nDisplay aspect ratio : 2.045\nFrame rate : 23.976 fps\nColor space : YUV\nChroma subsampling : 4:2:0\nBit depth : 8 bits\nScan type : Progressive\nBits/(Pixel*Frame) : 0.241\nStream size : 1.01 GiB (87%)\nWriting library : XviD 1.2.1 (UTC 2008-12-04)\n\nAudio\nID : 1\nFormat : AC-3\nFormat/Info : Audio Coding 3\nMode extension : CM (complete main)\nCodec ID : 2000\nDuration : 1h 33mn\nBit rate mode : Constant\nBit rate : 224 Kbps\nChannel(s) : 2 channels\nChannel positions : Front: L R\nSampling rate : 48.0 KHz\nBit depth : 16 bits\nStream size : 150 MiB (13%)\nAlignment : Split accross interleaves\nInterleave, duration : 44 ms (1.05 video frame)\nInterleave, preload duration : 500 ms\n\n\n &lt;a href=&quot;\nhttp://www.imdb.com/title/tt0970866/&quot; rel=&quot;nofollow&quot; target=&quot;_NEW&quot;&gt;\nhttp://www.imdb.com/title/tt0970866/&lt;/a&gt;\n\nUsers: 5.3/10 (9,721 votes) 93 reviews | Critics: 127 reviews Metascore: 27/100\n(based on 32 reviews from Metacritic.com)\n\nStoryline\n\nIt has taken 10 years, two little Fockers with wife Pam (Polo) and countless hurdles for Greg to finally get &quot;in&quot; with his tightly wound father-in-law, Jack. After the cash-strapped dad takes a job moonlighting for a drug company, however, Jack's suspicions about his favorite male nurse come roaring back. When Greg and Pam's entire clan-including Pam's lovelorn ex, Kevin (Owen Wilson)-descends for the twins' birthday party, Greg must prove to the skeptical Jack that he's fully capable as the man of the house. But with all the misunderstandings, spying and covert missions, will Greg pass Jack's final test and become the family's next patriarch...or will the circle of trust be broken for good? ","torrent":{"xt":"urn:btih:a47c97bdd30316ea7b24c0c72d24bb2eb47f21b8","amp;dn":"Little+Fockers+2010+DVDSCR+XviD+SAFCuk009+%7BDragonTrG%7D","amp;tr":["udp%3A%2F%2Ftracker.openbittorrent.com%3A80","udp%3A%2F%2Fopen.demonii.com%3A1337","udp%3A%2F%2Ftracker.coppersurfer.tk%3A6969","udp%3A%2F%2Fexodus.desync.com%3A6969"],"infoHash":"a47c97bdd30316ea7b24c0c72d24bb2eb47f21b8","infoHashBuffer":{"type":"Buffer","data":[164,124,151,189,211,3,22,234,123,36,192,199,45,36,187,46,180,127,33,184]},"announce":[],"urlList":[]}}